<?xml version="1.0" encoding="utf-8"?>
<!-- Generator: Adobe Illustrator 22.1.0, SVG Export Plug-In . SVG Version: 6.00 Build 0)  -->
<svg version="1.1" xmlns="http://www.w3.org/2000/svg" xmlns:xlink="http://www.w3.org/1999/xlink" x="0px" y="0px"
	 viewBox="0 0 2272.4 614.3" style="enable-background:new 0 0 2272.4 614.3;" xml:space="preserve">
<style type="text/css">
	.st0{fill:none;}
	.st1{fill:#FFFFFF;}
	.st2{font-family:'Inconsolata-Regular';}
	.st3{font-size:72px;}
	.st4{opacity:0.2;fill:#FFFFFF;}
	.st5{fill:none;stroke:#FFFFFF;stroke-miterlimit:10;}
	.st6{clip-path:url(#SVGID_2_);}
</style>
<g id="Layer_1">
</g>
<g id="Layer_2">
	
		<image style="overflow:visible;" width="721" height="721" xlink:href="../../../../Desktop/Dev Doodles/devdoodleslogo.png"  transform="matrix(0.3585 0 0 0.3585 854.8344 339.7151)">
	</image>
	<g>
		<g id="RrMNAh.tif_1_">
			
				<image style="overflow:visible;" width="1587" height="354" id="Layer_1_1_" xlink:href="48CD09D77A48AA5.png"  transform="matrix(0.24 0 0 0.24 1849.9781 44.8655)">
			</image>
		</g>
		<rect x="1792.3" y="178" class="st0" width="496.3" height="69.7"/>
		<text transform="matrix(1 0 0 1 1842.4186 225.9289)" class="st1 st2 st3">/unakravets</text>
	</g>
	
		<image style="overflow:visible;" width="600" height="600" xlink:href="toolsday.png"  transform="matrix(0.7151 0 0 0.7151 1326.2529 35.4264)">
	</image>
	<rect x="1336.9" y="496.1" class="st0" width="407.8" height="69.7"/>
	<text transform="matrix(1 0 0 1 1342.7804 543.9656)" class="st1 st2 st3">toolsday.io</text>
	<g>
		<rect x="31.2" y="269" class="st4" width="625.6" height="313.7"/>
		<g>
			<path class="st1" d="M203.8,168.3h7c6.3,0,11.6-2.3,11.6-11.9c0-7.9-4-11.8-11.9-11.8h-6.6C203.8,144.6,203.8,168.3,203.8,168.3z
				 M210.9,120.6c8.3,0,10.7-3.6,10.7-10c0-6.2-3.5-10-10.9-10h-7v20.1H210.9z M161.2,75h62.9c31.2,0,40.9,15.6,40.9,30.4
				c0,12.5-7.1,20.9-18.5,24.8c9.7,3.1,21.8,10.7,21.8,27.7c0,19.6-13.5,35.8-45.2,35.8h-61.9V75z M519.4,193.8h-30.1
				c-0.5-1.9-1.7-6.6-1.9-9.9c-6.6,9.1-16.8,13-31.4,13c-40.7,0-50.9-33.1-50.9-60.1c0-37.8,18.9-64.9,59.8-64.9
				c40,0,53.5,19.9,54.7,40.5h-43.7c-1.1-5.7-2.6-10.7-10.9-10.7c-9,0-13.4,9-13.4,33.6c0,20.9,3.5,31.9,13.4,31.9
				c9,0,11.3-7.3,11.3-14.9v-1.6H465v-26.4h54.4V193.8"/>
			<g transform="translate(2.643 193.525)">
				<path class="st1" d="M167.7,40.1c1.4,0,2.6-0.7,2.6-2.6c0-1.6-1.2-2.3-2.6-2.3h-2.5v4.8H167.7L167.7,40.1z M167.2,31.9
					c1.2,0,2.4-0.3,2.4-2c0-1.7-1.1-1.9-2.2-1.9h-2.3v3.9H167.2L167.2,31.9z M160.6,24.8h8c3.3,0,5.8,1.1,5.8,4.5
					c0,2.6-1.4,3.6-3.9,4.1v0.1c2.7,0.3,4.4,1.7,4.4,4.6c0,3.6-2.6,5.4-6.1,5.4h-8.2V24.8L160.6,24.8z M180.4,24.8h4.6v12
					c0,2.4,1,3.4,2.9,3.4s3-1,3-3.5V24.8h4.5v11.9c0,4.3-2.8,7.2-7.6,7.2c-4.5,0-7.4-2.6-7.4-6.8L180.4,24.8 M205,37.3
					c-0.3,1.5,0.2,3.2,3.2,3.2c2,0,2.6-0.8,2.6-1.8c0-1.6-1.6-2-3.4-2.6c-2.7-0.9-6.1-2.3-6.1-6.2c0-3.5,2.7-5.6,7.3-5.5
					c5.6,0.1,7.2,3.4,6.6,6.3l-4.2,0.4c0.3-2.2-0.5-3.4-2.6-3.4c-1.4,0-2.3,0.5-2.3,1.7c0,1.6,1.5,2,3.3,2.6c2.8,0.9,6.2,2.1,6.2,6
					c0,3.3-2.5,5.7-7.4,5.7c-4.6,0-7.7-2.1-7.1-6.1L205,37.3"/>
			</g>
			<path class="st1" d="M222.3,218.3h15v3.4H232v15.3h-4.6v-15.3h-5.1L222.3,218.3 M242.4,218.3h4.6v15.3h7.8v3.4h-12.4V218.3
				 M259.8,218.3h12.4v3.4h-7.8v4h6.5v3.4h-6.5v4.4h8v3.4h-12.7L259.8,218.3 M293.1,233.6c2,0,4-1.2,4-6.1c0-4.8-2-5.9-4-5.9H291v12
				L293.1,233.6L293.1,233.6z M286.4,218.3h7.2c4.7,0,8.2,2.7,8.2,9.2c0,6.4-3.5,9.4-8.2,9.4h-7.2V218.3z"/>
			<g transform="translate(191.543 193.525)">
				<path class="st1" d="M114.9,24.8h9.7V28h-2.5v12.2h2.5v3.2h-9.7v-3.2h2.5V28h-2.5V24.8 M137.6,34h7.7v9.4h-3.1v-3.2
					c-0.7,2.1-2.2,3.5-5.4,3.5c-4.3,0-7.6-3-7.6-9.7c0-6.8,3.2-9.6,8.3-9.6c5.7,0,8,3.2,7.3,6.6l-4.4,0.5c0.3-2.6-0.9-3.8-2.8-3.8
					c-2,0-3.8,1.4-3.8,6.4c0,4.9,1.5,6.3,3.8,6.3c2.1,0,3.2-1.3,3.3-2.6v-0.5h-3.5V34"/>
			</g>
			<path class="st1" d="M341.9,218.3h9.7v3.2h-2.5v12.2h2.5v3.2h-9.7v-3.2h2.5v-12.2h-2.5V218.3 M355.8,218.3h15v3.4h-5.2v15.3H361
				v-15.3h-5.1V218.3 M379.1,230h4l-1.3-3.9c-0.5-1.4-0.6-3.2-0.6-3.2h-0.2c0,0-0.3,1.9-0.7,3.2L379.1,230L379.1,230z M379.1,218.3
				h4.7l6.3,18.7h-4.7l-1.1-3.6H378l-1.1,3.6h-4.1L379.1,218.3z"/>
			<g transform="translate(308.917 193.525)">
				<path class="st1" d="M86.1,24.8h4.6V40h7.8v3.4H86.1V24.8 M118.9,34h7.7v9.4h-3.1v-3.2c-0.7,2.1-2.2,3.5-5.4,3.5
					c-4.3,0-7.6-3-7.6-9.7c0-6.8,3.2-9.6,8.4-9.6c5.7,0,8,3.2,7.3,6.6l-4.4,0.5c0.3-2.6-0.9-3.8-2.8-3.8c-2,0-3.8,1.4-3.8,6.4
					c0,4.9,1.5,6.3,3.8,6.3c2.1,0,3.2-1.3,3.3-2.6v-0.5h-3.5L118.9,34 M137.1,28.1v4.6h1.7c1.4,0,2.9-0.5,2.9-2.4
					c0-1.7-1.1-2.2-2.3-2.2C139.3,28.1,137.1,28.1,137.1,28.1z M132.5,24.8h7.7c3.6,0,6.1,1.7,6.1,5.2c0,2.8-1.9,4.5-3.8,5.1
					c0.5,0.5,1,1.1,1.3,1.7c0.8,1.6,1.3,3.3,2.9,3.3c0.5,0,0.8-0.2,0.8-0.2l-0.3,3.3c0,0-1,0.2-1.9,0.2c-2.2,0-3.5-0.8-4.8-3.9
					c-0.5-1.4-1.4-3.6-2.3-3.6h-1.1v7.4h-4.6V24.8z M164.1,33.8c0-4.7-1.8-6.1-3.9-6.1c-2,0-3.8,1.5-3.8,6.1c0,5.2,1.8,6.6,3.8,6.6
					C162.3,40.5,164.1,39,164.1,33.8z M151.7,33.8c0-6.7,3.6-9.4,8.6-9.4c4.9,0,8.5,2.7,8.5,9.4c0,7.5-3.7,10-8.5,10
					C155.3,43.8,151.7,41.1,151.7,33.8L151.7,33.8z M174.4,24.8h4.6v12c0,2.4,1,3.4,2.9,3.4c1.9,0,3-1,3-3.5V24.8h4.5v11.9
					c0,4.3-2.8,7.2-7.6,7.2c-4.5,0-7.4-2.6-7.4-6.8L174.4,24.8"/>
			</g>
			<path class="st1" d="M509.4,221.6v5.3h2.2c1.4,0,2.7-0.8,2.7-2.8c0-1.9-1.3-2.5-2.7-2.5H509.4L509.4,221.6z M504.7,218.3h7.9
				c3.7,0,6.3,1.9,6.3,5.6c0,4.1-2.6,6.4-6.3,6.4h-3.2v6.6h-4.6V218.3z M324,164.9h8.5c11.4,0,14.9-5,14.9-31.1
				c0-25.8-3.5-29.9-15.6-29.9H324V164.9L324,164.9z M282.2,75h53.3c40.5,0,58.4,22,58.4,58c0,37.2-19.9,60.7-58.7,60.7h-53
				L282.2,75L282.2,75z"/>
		</g>
		<rect x="68.1" y="293.3" class="st0" width="544.6" height="69.7"/>
		<text transform="matrix(1 0 0 1 160.3833 341.2093)" class="st1 st2 st3">bustle.com</text>
		<rect x="68.1" y="361.5" class="st0" width="544.6" height="69.7"/>
		<text transform="matrix(1 0 0 1 88.3833 409.3552)" class="st1 st2 st3">elitedaily.com</text>
		<rect x="42.2" y="497.8" class="st0" width="596.4" height="69.7"/>
		<text transform="matrix(1 0 0 1 160.3833 545.6476)" class="st1 st2 st3">romper.com</text>
		<rect x="42.2" y="429.6" class="st0" width="596.4" height="69.7"/>
		<text transform="matrix(1 0 0 1 52.3833 477.5016)" class="st1 st2 st3">thezoereport.com</text>
		<rect x="31.2" y="34.1" class="st5" width="625.6" height="548.5"/>
	</g>
	<g>
		<rect x="647.6" y="188.7" class="st0" width="672.9" height="69.7"/>
		<text transform="matrix(1 0 0 1 768.0791 236.574)" class="st1 st2 st3">/dev_doodles</text>
		<rect x="647.6" y="258.5" class="st0" width="672.9" height="69.7"/>
		<text transform="matrix(1 0 0 1 786.0791 306.3306)" class="st1 st2 st3">/unakravets</text>
	</g>
	<g>
		<g>
			<defs>
				<rect id="SVGID_1_" x="707.4" y="28.5" width="133.8" height="133.8"/>
			</defs>
			<clipPath id="SVGID_2_">
				<use xlink:href="#SVGID_1_"  style="overflow:visible;"/>
			</clipPath>
			<g id="PCFd4D.tif_2_" class="st6">
				
					<image style="overflow:visible;" width="949" height="231" id="Layer_0_4_" xlink:href="48CD09D77A48AAD.png"  transform="matrix(0.5099 0 0 0.5099 715.2872 40.2586)">
				</image>
			</g>
		</g>
		<g id="JNhY9Y.tif_1_">
			<g>
				<path class="st1" d="M921.3,104.1c0.9-2.4,1.8-4.9,2.7-7.4c1.4-4,3.1-7.9,5.5-11.4c1.3-1.9,2.8-3.7,4.8-5
					c2.7-1.7,5.4-2.2,8.3-0.6c1.5,0.8,3,1.8,4.3,2.8c1.2,0.9,1.6,2.2,1.6,3.7c-0.1,2.1-0.1,4.2-0.2,6.3c-0.1,2.8-0.2,5.7-0.3,8.5
					c-0.1,3.4-0.2,6.8-0.1,10.1c0,1.7,0.3,3.5,0.5,5.2c0.1,0.5,0.4,1.1,0.6,1.6c0.3,0.6,1.3,0.5,2.1-0.1c1.5-1.1,2.6-2.7,3.5-4.2
					c2.1-3.4,4.1-6.9,6.1-10.3c1.4-2.4,2.7-4.9,4-7.4c-1.1-1.4-2.1-2.8-2.6-4.6c-0.5-2.1-0.2-4.2,0.6-6.1c1.2-3,3.2-5.2,6.2-6.5
					c2.2-1,4.4-1.1,6.7-0.4c2.3,0.8,2.8,2.8,2.5,4.8c-0.6,3.5-2.4,6.5-4.6,9.3c-0.2,0.3-0.4,0.5-0.6,0.9c1.2,0.9,2.5,1.8,3.6,2.7
					c3,2.3,6.1,4.4,8.8,7.1c2,2.1,3.4,4.6,3.8,7.5c0.2,1.4,0,2.9,0,4.5c0.8-0.9,1.8-1.8,2.5-2.8c1.9-2.5,3.5-5.3,4.5-8.4
					c0.5-1.5,0.8-3.1,0.8-4.7c-0.1-2.8,0-5.6,0-8.4c0-4.5,0.1-9,0.2-13.5c0-0.2,0-0.4,0-0.6c-1.1-0.1-2.2-0.2-3.2-0.2
					c-2.5-0.1-5.1-0.1-7.6-0.2c-0.9,0-1.4-0.6-1.4-1.9c0-1.9,0.4-3.7,1.5-5.3c0.3-0.5,0.7-0.7,1.4-0.7c2.3,0.1,4.6,0.1,6.9,0.2
					c1,0,2,0.1,3.1,0.2c0.1-0.2,0.1-0.3,0.1-0.4c0.1-2.6,0.1-5.2,0.2-7.8c0.1-1.7,0.1-3.5,0.3-5.2c0.3-2.1,1.3-2.6,3.2-2.3
					c2.2,0.4,4.3,1.1,6.4,1.7c0.8,0.2,1.6,0.6,1.8,1.6c0.1,0.4-0.1,0.9-0.1,1.3c-0.1,2-0.1,4.1-0.2,6.1c-0.1,1.6-0.2,3.2-0.3,4.8
					c0,0.2,0.3,0.6,0.5,0.6c1.1,0.1,2.2,0.1,3.3,0.2c2.4,0.1,4.8,0.2,7.2,0.3c1,0.1,2,0.2,2.9,0.3c0.7,0.1,1.1,0.5,1.2,1.1
					c0.2,1.8-0.2,3.5-1.2,4.9c-0.6,0.8-1.5,0.7-2.3,0.7c-2.7,0.1-5.5,0-8.2,0c-1.2,0-2.3,0.1-3.5,0.2c-0.1,0.9-0.2,1.8-0.2,2.7
					c-0.1,2.2-0.1,4.5-0.2,6.7c-0.1,3.8-0.2,7.5-0.3,11.3c-0.1,4.2-0.2,8.3-0.1,12.5c0.1,2.7,0.5,5.5,1.6,8c0.3,0.7,0.8,1.3,1.3,1.8
					c0.9,0.8,2.3,0.6,3.7-0.4c2.5-1.9,4-4.6,5.2-7.5c0.6-1.4,0.9-2.9,1.4-4.3c0.1-0.2,0.1-0.4,0.1-0.5c0.1-2.1,0.1-4.1,0.3-6.2
					c0.5-4.5,1.3-8.9,3.3-13.1c1-2.1,2.3-4,3.9-5.8c1.7-1.9,3.7-3.3,6.2-4c3.6-0.9,6.9-0.4,9.9,1.8c1.1,0.9,2.1,2,3.2,3
					c0-0.4,0-0.8,0-1.2c0-1.3,1-2.3,2.3-2.3c2.5-0.1,4.9,0.4,7,1.8c0.8,0.5,1.3,1.2,0.9,2.2c0,0.1,0,0.2,0,0.3
					c-0.1,2.8-0.1,5.5-0.2,8.3c0,2.4-0.1,4.9-0.2,7.3c-0.1,3.1-0.3,6.3-0.1,9.4c0.1,3.4,0.2,6.9,1.4,10.2c0.7,2,1.9,3,3.7,2.9
					c1.4,0,2.3-1,3-2c1.2-1.6,1.9-3.5,2.4-5.4c0.2-0.7-0.1-1.5-0.1-2.2c-0.1-1.8-0.3-3.5-0.3-5.3c0-2.1,0-4.1,0.2-6.2
					c0.4-4.2,1.3-8.3,3.1-12.2c1.3-2.8,2.8-5.4,5.1-7.5c1.9-1.7,4.1-2.9,6.8-3.1c2.1-0.2,4.1,0,6,0.8c1.8,0.7,3.2,2,4.5,3.4
					c0.2,0.3,0.4,0.6,0.8,1c0-0.4,0-0.7,0-1c0-1.6,1.1-2.6,2.6-2.7c1.8-0.1,3.4,0.3,5.1,0.9c0.6,0.2,1.1,0.5,1.6,0.7
					c0.8,0.4,1.1,1,1.1,1.9c-0.1,3.5-0.1,7-0.2,10.5c-0.1,6.7-0.1,13.3-0.2,20c0,0.6,0,1.1,0.1,1.7c0.6-0.9,1.3-1.9,1.9-2.8
					c3.8-5.9,6.7-12.2,8.8-18.9c0.2-0.6,0.3-1.3,0.5-1.9c0.2-0.6,0.1-1-0.4-1.4c-1.5-1.2-2.5-2.9-2.5-4.8c-0.1-3.2,0.9-6.1,3.8-7.8
					c2.1-1.3,4.5-1.4,6.7-0.1c1,0.6,1.6,1.6,1.7,2.7c0.1,1.4,0,2.8,0,4.2c0.7-0.1,1.5-0.2,2.4-0.4c2.6-0.5,5.1-1.1,7.7-1.5
					c1.5-0.2,3.1-0.2,4.5,0.6c1.4,0.8,2.2,2.1,2.3,3.7c0.2,1.7-0.4,3.3-0.7,4.9c-0.6,3.1-1.3,6.3-1.8,9.4c-0.3,1.9-0.3,3.9-0.5,5.8
					c-0.3,3.2,0.1,6.3,0.8,9.3c0.4,1.7,1,3.4,2.4,4.6c1.4,1.4,3.4,1.3,4.9,0c1.8-1.6,2.4-3.7,2.9-5.9c0.2-0.7-0.2-1.4-0.3-2.1
					c-0.2-1.1-0.4-2.1-0.4-3.2c-0.1-1.5-0.3-3-0.1-4.5c0.2-2.9,0.5-5.9,0.9-8.8c0.4-3.5,1.6-6.7,3.3-9.8c1.8-3.3,4-6.3,7.6-7.8
					c1.9-0.8,3.8-1.1,5.9-0.9c3.7,0.3,6.3,2.3,8.4,5c0.1,0.1,0.1,0.1,0.3,0.3c0-0.5,0-1,0-1.4c-0.1-1.3,1-2.2,2.1-2.3
					c2.2-0.1,4.3,0.2,6.3,1.2c1.8,0.9,2.1,1.5,2,3.4c-0.1,1.5-0.1,3-0.2,4.5c-0.1,2.1-0.1,4.2-0.2,6.4c-0.1,2.3-0.1,4.7-0.2,7
					c0,1.2-0.2,2.4-0.1,3.6c0,2.1,0,4.1,0.2,6.2c0.2,2.6,0.3,5.2,1.2,7.6c0.6,1.7,1.9,2.8,3.6,2.5c0.8-0.1,1.8-0.7,2.4-1.3
					c1.9-2.1,2.9-4.8,3.9-7.5c0.8-2.2,0.8-4.5,0.8-6.8c0-3.3,0-6.7,0-10c0-4.6,0.1-9.1,0.2-13.7c0-0.8,0.1-1.6,0.2-2.3
					c0.1-1,1.3-1.8,2.5-1.5c1.8,0.4,3.7,0.8,5.5,1.2c1.4,0.3,2,1.2,2,2.6c0,5,0,10,0,15.1c0,0.3,0,0.6,0,0.8c0,0,0.1,0,0.1,0
					c0.7-2.1,1.4-4.2,2.1-6.3c1.2-3.7,2.4-7.4,4.2-10.9c1.2-2.3,2.2-3,5.1-2.5c2.3,0.4,4.3,1.1,5.9,2.8c0.9,0.9,1.3,2,1.4,3.3
					c0.1,2.8,0.1,5.5,0.2,8.3c0.1,2.1,0.2,4.2,0.3,6.3c0.2,2.3,0.4,4.6,0.7,6.9c0.7-4.2,1.6-8.4,2.9-12.4c1.4-4.2,2.9-8.3,4.4-12.4
					c1-2.6,3-3.3,5.5-2.6c2.2,0.6,4.3,1.4,6.2,2.7c1.8,1.3,2.1,3,1.9,4.9c0,0.2-0.1,0.4-0.1,0.5c-0.1,2.1-0.1,4.3-0.2,6.4
					c-0.1,4.5-0.2,9-0.1,13.5c0.1,3.7,0.2,7.4,1.6,10.9c0.4,0.9,0.9,1.8,1.5,2.7c1.1,1.5,3.6,1,4.5-0.4c1.3-2.1,1.8-4.5,2.5-6.8
					c0.3-1,0.5-2.1,1.1-2.9c0.7-1.1,2-0.8,2.6,0.3c0.5,1,0.5,2.1,0.3,3.1c-0.3,1.9-0.7,3.9-1.2,5.7c-0.9,2.9-2.2,5.6-4.9,7.3
					c-1.8,1.2-3.8,1.5-6,1.2c-2.4-0.3-4.3-1.4-6-3c-2-2-3.3-4.4-3.9-7.1c-0.5-2.2-0.8-4.5-1.1-6.8c-0.8-6.2-0.4-12.5-0.5-18.7
					c0-0.6,0.1-1.2,0.2-1.8c-0.1,0-0.2,0-0.2-0.1c-0.3,0.7-0.7,1.3-0.9,2c-1,2.6-2.2,5.2-2.9,7.9c-1,3.6-1.8,7.2-2.5,10.9
					c-0.5,2.7-0.7,5.4-1,8.1c-0.1,0.9,0,1.9-0.1,2.8c-0.1,0.9-0.7,1.5-1.5,1.7c-4.1,1.1-7.9-0.3-9.1-4.9c-0.6-2.6-1.1-5.2-1.4-7.8
					c-0.4-2.9-0.6-5.8-0.8-8.7c-0.1-1.8-0.2-3.5-0.3-5.3c-0.1-1.7-0.1-3.5-0.2-5.2c0-0.3-0.2-0.7-0.3-1.3c-0.5,0.6-0.8,1-1.1,1.4
					c-1.7,3.2-3.1,6.5-4,9.9c-0.6,2.4-1.3,4.7-1.8,7.1c-0.3,1.5-0.5,3.1-0.6,4.7c-0.2,2.9-0.2,5.9-0.3,8.9c0,0.9-0.1,1.7-0.2,2.6
					c-0.1,1.5-0.9,2.3-2.5,2.6c-2.1,0.3-4.2,0.3-6.2-0.3c-0.7-0.2-1.4-0.5-2-0.8c-0.7-0.4-0.9-1.1-1-1.8c-0.1-0.8-0.1-1.6-0.2-2.4
					c0-0.6-0.1-1.2-0.2-1.8c-0.9,1.8-1.9,3.5-3.3,4.9c-2.3,2.2-5.1,2.9-8.2,2.2c-4.6-1.1-7.3-4.1-8.4-8.6c-0.1-0.2-0.1-0.4-0.2-0.7
					c-0.5,0.8-1,1.6-1.5,2.3c-2.4,3.4-5.4,5.9-9.5,6.9c-3.9,1-7.5,0.3-10.7-2.2c-1.6-1.3-2.7-3-3.8-4.7c-0.8,1.9-2,3.4-3.5,4.8
					c-1.9,1.7-4.2,2.8-6.8,2.6c-2.4-0.2-4.6-1.1-6.6-2.6c-3.5-2.8-5-6.6-5.8-10.8c-0.5-2.8-0.7-5.6-0.6-8.5c0.1-2.5,0.4-5,0.8-7.4
					c0.4-2.5,0.9-5,1.4-7.4c0.1-0.6,0-1-0.8-0.9c-2.2,0.1-4.3,0.1-6.5,0.2c-0.2,0-0.5,0.3-0.6,0.5c-1.7,4.9-3.9,9.6-6.3,14.2
					c-2.3,4.4-5,8.7-8.1,12.7c-1.3,1.7-2.6,3.3-3.9,4.9c-0.1,0.2-0.2,0.4-0.2,0.6c0,1,0,2,0,3.1c0.1,3.5,0.2,7,0.1,10.5
					c-0.1,5.4-0.7,10.8-2.6,16c-0.7,2-1.8,3.7-3.1,5.3c-2.1,2.4-4.6,4.1-7.6,5c-3.5,1.1-7,0.7-10.3-0.8c-1.4-0.6-2.8-1.5-3.9-2.5
					c-1.6-1.4-2.5-3.3-2.9-5.3c-1-4.7,0.7-8.7,3.4-12.4c2.2-3.1,5-5.7,7.7-8.3c2-1.9,4.1-3.8,6.2-5.7c1-0.9,2.1-1.9,3.1-2.8
					c0.4-0.3,0.5-0.7,0.4-1.3c-0.2-1,0-2,0-3.1c0-0.1,0-0.3,0-0.6c-0.6,0.7-1,1.2-1.5,1.8c-2.4,3-5.4,4.8-9.1,5.5
					c-4,0.7-7.6-0.2-10.6-3.2c-1.3-1.3-2.4-2.7-3.2-4.4c-0.8,1.2-1.5,2.4-2.3,3.6c-1.7,2.3-4,3.7-6.9,4c-3.1,0.4-5.7-0.6-8-2.6
					c-2.1-1.8-3.1-4.1-3.5-6.8c-0.6,0.9-1.3,1.9-1.9,2.8c-2.5,3.4-5.8,5.8-10,6.5c-5,0.9-9.1-0.9-12.2-5c-1.6-2.2-2.6-4.7-3.4-7.4
					c-0.9,2.5-2.1,4.7-3.5,6.7c-1.4,2-3.1,3.8-5.3,5c-2.1,1.1-4.2,1.1-6.5,0.5c-3.3-0.9-5.4-3.2-6.9-6.1c-1.4-2.6-2.1-5.5-2.5-8.4
					c-0.1-1-0.3-1.9-0.4-2.7c-1.4,2.4-2.7,5-4.3,7.4c-3,4.5-7,7.8-12.2,9.4c-2.6,0.8-5.4,1.1-8.1,0.9c-2.7-0.2-5.4-0.6-8-1.7
					c-1.3-0.6-2.5-1.1-3.5-2.3c-0.5-0.6-0.6-1.3-0.4-1.9c0.5-2.2,1.6-4,3.4-5.4c1-0.7,1.9-0.7,3.1,0.1c1.4,0.9,2.8,2,4.3,2.8
					c1.8,1,3.7,1.1,5.5-0.2c1.2-0.9,1.8-2.3,2-3.7c0.7-3.7-0.8-6.7-3.2-9.3c-2.2-2.4-4.7-4.6-7.2-7c-1.1,1.9-2.1,3.6-3.1,5.3
					c-2.6,4.3-5.1,8.6-7.8,12.8c-1.5,2.4-3.3,4.6-5.3,6.6c-1.7,1.6-3.5,3-5.9,3.7c-2.1,0.6-4.2,0.3-5.9-1.2
					c-1.2-1.1-1.9-2.6-2.3-4.2c-0.8-2.8-1.1-5.7-1.1-8.7c0-1.7-0.2-3.5-0.1-5.2c0.1-2.9,0.2-5.8,0.3-8.7c0.1-2.3,0.2-4.6,0.3-6.9
					c0.1-1.7,0.2-3.3,0.3-5c0-0.3-0.1-0.6-0.2-0.9c-0.3,0.1-0.6,0.2-0.8,0.4c-2,2-3.6,4.4-5,6.9c-2.7,4.7-4.8,9.6-6.3,14.8
					c-1.1,3.9-2.2,7.8-3.1,11.7c-0.4,1.8-0.6,3.6-0.8,5.4c-0.1,0.8-0.4,1.2-1.1,1.5c-1.4,0.5-2.8,0.4-4.2,0.3
					c-0.9-0.1-1.8-0.2-2.6-0.7c-1.3-0.9-1.8-2.3-2-3.8c-0.2-1.3-0.3-2.7-0.3-4c0-8.8,0-17.6,0-26.4c0-4.3,0.1-8.6,0.2-12.9
					c0-0.9,0.6-1.6,1.5-1.7c2.7-0.1,5.1,0.6,7.4,2c0.4,0.2,0.7,0.9,0.8,1.3c0.1,4.2,0,8.3,0,12.5C921.3,97.8,921.3,101,921.3,104.1z
					 M1032,106.3c0.1,1.8,0.3,3.6,0.4,5.4c0.2,2.6,0.8,5.1,2.1,7.3c0.5,0.9,1.3,1.7,2.1,2.3c1.8,1.3,4,0.5,5.6-0.9
					c2.1-1.8,3.2-4.2,4-6.8c1.3-4.1,1.7-8.3,1.8-12.6c0-1.7-0.2-3.4-0.3-5.1c-0.2-2.5-0.8-4.9-2.1-7.1c-2.2-3.6-6.9-3.4-9.3-0.4
					c-1.3,1.7-2.2,3.6-2.8,5.7C1032.5,98.1,1032.1,102.2,1032,106.3z M1159.8,105.8c0.1,1.7,0.2,3.1,0.2,4.5
					c0.1,2.4,0.6,4.8,1.4,7.1c0.7,1.8,1.6,3.4,3.5,4.1c2,0.8,3.7,0,5.2-1.4c1.6-1.5,2.6-3.4,3.3-5.4c1.5-4,2.2-8.3,2.2-12.5
					c0-2.6-0.2-5.3-0.5-7.9c-0.2-2.2-0.8-4.3-2.2-6.1c-1.5-2-3.4-2.6-5.9-2c-1.9,0.5-3.2,1.8-4.1,3.5c-1.7,2.9-2.4,6.2-2.7,9.5
					C1159.9,101.6,1159.9,103.9,1159.8,105.8z M1094.2,100.2c0.1,0,0.2,0,0.3,0c-0.1-2-0.3-4.1-0.5-6.1c-0.2-1.8-0.7-3.6-1.6-5.2
					c-1.3-2.3-3.4-3.2-5.9-2.6c-2.4,0.6-3.8,2.2-4.9,4.2c-2.2,4.1-2.9,8.6-3.1,13.2c-0.2,3.1-0.1,6.2,0.4,9.3c0.5,2.5,1.1,4.9,2.6,7
					c1.5,2.1,3.7,2.4,5.7,1.3c1.8-1,3.1-2.6,4-4.5c1.6-3.5,2.4-7.2,2.8-10.9C1094.3,104,1094.2,102.1,1094.2,100.2z M1095.5,133.1
					c-0.1,0-0.2,0-0.2-0.1c-1.7,1.9-3.5,3.8-5.2,5.6c-2.3,2.4-4.3,5-5.9,7.8c-1.4,2.5-2.5,5.1-2.4,8c0.1,1.4,0.5,2.8,1.6,3.7
					c2.7,2.4,6.6,1.2,8.3-0.9c0.9-1.1,1.6-2.6,2-4c1.3-4.2,1.7-8.6,1.8-13c0-1.9,0.1-3.8,0.1-5.7
					C1095.6,134.1,1095.5,133.6,1095.5,133.1z"/>
				<path class="st1" d="M891.3,60c-0.6,0.4-1.1,0.6-1.4,1c-1.3,1.6-2.8,3.2-3.9,5c-2.4,3.6-3.7,7.7-4.5,11.9
					c-0.5,2.5-0.7,5.1-0.5,7.6c0.2,3.4,1.2,6.5,3.1,9.4c0.4,0.6,0.8,1.3,0.7,2c0,1.1-1.1,1.7-2.4,1.2c-1.5-0.6-3.1-1.3-4.5-2.2
					c-2.1-1.5-3.7-3.4-4.8-5.7c-0.9-1.8-1.4-3.7-1.5-5.7c-0.4-4,0.8-7.8,2.2-11.4c1.2-3.1,2.8-5.9,4.8-8.5
					c3.2-4.2,7.1-7.8,11.9-10.2c1.9-1,3.8-1.1,5.9-0.6c2,0.5,3.8,1.1,5.2,2.7c0.3,0.4,0.6,1,0.6,1.5c0.1,15.1,0.1,30.2,0.2,45.3
					c0,3.6,0,7.2-0.2,10.9c-0.1,3.4-0.2,6.9-1.1,10.2c-1.1,4.1-2.9,7.8-6.1,10.7c-1.3,1.1-2.7,2.1-4.4,2.5c-0.4,0.1-0.9,0.1-1.3,0.1
					c-0.7-0.1-1-0.9-0.7-1.8c0.5-1.9,1.1-3.8,1.6-5.7c0.4-1.7,0.6-3.4,0.7-5.1c0.6-6.9,0.3-13.9,0.3-20.8
					c0.1-10.2,0.1-20.4,0.2-30.6c0-3.5,0.1-7.1,0.1-10.6C891.5,61.9,891.4,61.1,891.3,60z"/>
			</g>
		</g>
	</g>
	<g>
		<rect x="1850" y="339.7" class="st4" width="380.9" height="174"/>
		<rect x="1850" y="339.7" class="st5" width="380.9" height="174"/>
		<g>
			<g>
				<rect x="1992.6" y="396.3" class="st0" width="210.2" height="69.7"/>
				<text transform="matrix(1 0 0 1 2025.7068 444.2142)" class="st1 st2 st3">@una</text>
			</g>
			<g id="rgDBnO.tif_1_">
				
					<image style="overflow:visible;" width="1140" height="927" id="Layer_0_3_" xlink:href="48CD09D77A48AAF.png"  transform="matrix(0.1063 0 0 0.1063 1890.0062 381.9359)">
				</image>
			</g>
		</g>
	</g>
</g>
</svg>
