<svg xmlns="http://www.w3.org/2000/svg" width="800" height="600" viewBox="0 0 800 600" xmlns:xlink="http://www.w3.org/1999/xlink">
  <defs>
    <radialGradient id="l" cx="48.515%" cy="47.587%" r="103.665%" fx="48.515%" fy="47.587%">
      <stop stop-color="#FFFFFF" offset="0%"/>
      <stop stop-color="#FFFFFF" offset="13.682%"/>
      <stop stop-color="#DDE0EB" offset="100%"/>
    </radialGradient>
    <rect id="a" width="150" height="174"/>
    <mask id="m" width="150" height="174" x="0" y="0" fill="white">
      <use xlink:href="#a"/>
    </mask>
    <linearGradient id="p" x1="0%" y1="0%" y2="100%">
      <stop stop-color="#2850EB" offset="0%"/>
      <stop stop-color="#7893FF" offset="100%"/>
    </linearGradient>
    <rect id="o" width="57" height="48" x="12" y="14"/>
    <filter id="n" width="200%" height="200%" x="-50%" y="-50%" filterUnits="objectBoundingBox">
      <feOffset dy="2" in="SourceAlpha" result="shadowOffsetOuter1"/>
      <feGaussianBlur stdDeviation="3.5" in="shadowOffsetOuter1" result="shadowBlurOuter1"/>
      <feColorMatrix values="0 0 0 0 0.156862745 0 0 0 0 0.31372549 0 0 0 0 0.921568627 0 0 0 0.5 0" in="shadowBlurOuter1"/>
    </filter>
    <rect id="r" width="57" height="48" x="78" y="109"/>
    <filter id="q" width="200%" height="200%" x="-50%" y="-50%" filterUnits="objectBoundingBox">
      <feOffset dy="2" in="SourceAlpha" result="shadowOffsetOuter1"/>
      <feGaussianBlur stdDeviation="3.5" in="shadowOffsetOuter1" result="shadowBlurOuter1"/>
      <feColorMatrix values="0 0 0 0 0.156862745 0 0 0 0 0.31372549 0 0 0 0 0.921568627 0 0 0 0.5 0" in="shadowBlurOuter1"/>
    </filter>
    <rect id="t" width="57" height="80" x="78" y="14"/>
    <filter id="s" width="200%" height="200%" x="-50%" y="-50%" filterUnits="objectBoundingBox">
      <feOffset dy="2" in="SourceAlpha" result="shadowOffsetOuter1"/>
      <feGaussianBlur stdDeviation="3.5" in="shadowOffsetOuter1" result="shadowBlurOuter1"/>
      <feColorMatrix values="0 0 0 0 0.156862745 0 0 0 0 0.31372549 0 0 0 0 0.921568627 0 0 0 0.5 0" in="shadowBlurOuter1"/>
    </filter>
    <rect id="v" width="57" height="80" x="12" y="77"/>
    <filter id="u" width="200%" height="200%" x="-50%" y="-50%" filterUnits="objectBoundingBox">
      <feOffset dy="2" in="SourceAlpha" result="shadowOffsetOuter1"/>
      <feGaussianBlur stdDeviation="3.5" in="shadowOffsetOuter1" result="shadowBlurOuter1"/>
      <feColorMatrix values="0 0 0 0 0.156862745 0 0 0 0 0.31372549 0 0 0 0 0.921568627 0 0 0 0.5 0" in="shadowBlurOuter1"/>
    </filter>
    <polygon id="b" points="0 0 63.983 0 86 17.012 86 100 0 100"/>
    <mask id="w" width="86" height="100" x="0" y="0" fill="white">
      <use xlink:href="#b"/>
    </mask>
    <rect id="y" width="16" height="28" x="7" y="8"/>
    <filter id="x" width="200%" height="200%" x="-50%" y="-50%" filterUnits="objectBoundingBox">
      <feOffset dy="2" in="SourceAlpha" result="shadowOffsetOuter1"/>
      <feGaussianBlur stdDeviation="3.5" in="shadowOffsetOuter1" result="shadowBlurOuter1"/>
      <feColorMatrix values="0 0 0 0 0.156862745 0 0 0 0 0.31372549 0 0 0 0 0.921568627 0 0 0 0.5 0" in="shadowBlurOuter1"/>
    </filter>
    <rect id="A" width="16" height="18" x="27" y="8"/>
    <filter id="z" width="200%" height="200%" x="-50%" y="-50%" filterUnits="objectBoundingBox">
      <feOffset dy="2" in="SourceAlpha" result="shadowOffsetOuter1"/>
      <feGaussianBlur stdDeviation="3.5" in="shadowOffsetOuter1" result="shadowBlurOuter1"/>
      <feColorMatrix values="0 0 0 0 0.156862745 0 0 0 0 0.31372549 0 0 0 0 0.921568627 0 0 0 0.5 0" in="shadowBlurOuter1"/>
    </filter>
    <rect id="C" width="16" height="28" x="47" y="8"/>
    <filter id="B" width="200%" height="200%" x="-50%" y="-50%" filterUnits="objectBoundingBox">
      <feOffset dy="2" in="SourceAlpha" result="shadowOffsetOuter1"/>
      <feGaussianBlur stdDeviation="3.5" in="shadowOffsetOuter1" result="shadowBlurOuter1"/>
      <feColorMatrix values="0 0 0 0 0.156862745 0 0 0 0 0.31372549 0 0 0 0 0.921568627 0 0 0 0.5 0" in="shadowBlurOuter1"/>
    </filter>
    <path id="c" d="M405.7573,281.5286 C406.9081,283.8323 407.83,286.0226 408.4075,288.0953 L420.619,289.9391 C421.7719,290.2856 422.5783,291.4364 422.5783,292.4738 L422.5783,307.682 C422.5783,308.6039 421.7719,309.8723 420.619,309.9857 L408.292,311.8295 C407.4856,314.1353 406.6792,315.977 405.6418,317.8208 C407.9455,321.1619 410.3647,324.1586 412.786,327.4997 C413.5924,328.6505 413.7058,329.5724 413.0149,330.4943 C411.2866,332.6846 402.1852,342.8234 399.997,342.8234 C399.4195,342.8234 398.7286,342.7079 398.1532,342.2459 L388.8208,334.9883 C386.8615,335.9102 384.7867,336.8321 382.714,337.523 C382.252,341.4395 381.7921,345.9335 380.7547,349.85 C380.4103,351.0029 379.7173,351.8093 378.3355,351.8093 L363.3583,351.8093 C361.9744,351.8093 360.9391,350.7719 360.8236,349.7366 L358.9798,337.4075 C357.0205,336.7166 354.9478,335.9102 352.9885,334.9883 L343.3096,342.1325 C342.2722,342.8234 341.1214,342.8234 340.084,341.9015 C336.283,338.5604 331.789,334.4129 328.9078,330.3788 C328.3324,329.4569 328.2169,328.4216 328.9078,327.3842 C331.2136,324.0431 333.6328,321.1619 335.821,318.0518 C334.7836,315.8615 333.7483,313.6733 333.1708,311.6006 L320.9593,309.6413 C319.8064,309.4103 319,308.3729 319,307.2221 L319,292.3583 C319,291.2075 319.8064,289.9391 320.8438,289.7081 L333.5173,287.8643 C334.2082,285.5606 335.0146,283.8323 336.052,281.6441 C333.7483,278.5319 331.327,275.5373 328.9078,272.3117 C327.9859,271.0433 327.8704,270.3524 328.7923,269.1995 C330.5206,267.0113 339.5086,256.988 341.8123,256.988 C342.2722,256.988 343.0807,257.3324 343.6561,257.7944 L352.9885,264.9365 C354.8323,263.7857 356.905,262.9793 358.9798,262.2884 C359.4397,258.3698 359.9017,253.8758 360.8236,249.9593 C361.0525,248.8064 361.9744,248 363.3583,248 L378.3355,248 C379.7173,248 380.6392,248.8064 380.7547,250.0748 L382.5985,262.2884 C384.5578,263.0948 386.746,263.9012 388.5898,264.8231 L398.2687,257.6789 C399.304,256.8725 400.5724,256.8725 401.4943,257.7944 C405.2953,261.02 409.9048,265.1675 412.6705,269.1995 C413.3614,270.2369 413.3614,271.2743 412.6705,272.1962 C410.4802,275.5373 407.9455,278.5319 405.7573,281.5286 Z M353,300.3964 C353,309.8443 360.7196,317.5639 370.1675,317.5639 C379.7309,317.5639 387.4505,309.8443 387.4505,300.3964 C387.4505,290.7196 379.7309,283 370.1675,283 C360.7196,283 353,290.7196 353,300.3964 Z"/>
    <mask id="D" width="103.578" height="103.809" x="0" y="0" fill="white">
      <use xlink:href="#c"/>
    </mask>
    <polygon id="d" points="0 18.76 25.73 0 51.46 18.76 51.46 43.726 51.43 43.726 25.73 62.464 .03 43.726 0 43.726 0 18.76"/>
    <mask id="E" width="51.46" height="62.464" x="0" y="0" fill="white">
      <use xlink:href="#d"/>
    </mask>
    <polygon id="e" points="0 18.76 25.73 0 51.46 18.76 51.46 43.726 51.43 43.726 25.73 62.464 .03 43.726 0 43.726 0 18.76"/>
    <mask id="F" width="51.46" height="62.464" x="0" y="0" fill="white">
      <use xlink:href="#e"/>
    </mask>
    <polygon id="f" points="0 18.76 25.73 0 51.46 18.76 51.46 43.726 51.43 43.726 25.73 62.464 .03 43.726 0 43.726 0 18.76"/>
    <mask id="G" width="51.46" height="62.464" x="0" y="0" fill="white">
      <use xlink:href="#f"/>
    </mask>
    <circle id="g" cx="62" cy="45" r="3"/>
    <mask id="H" width="6" height="6" x="0" y="0" fill="white">
      <use xlink:href="#g"/>
    </mask>
    <circle id="h" cx="93" cy="87" r="3"/>
    <mask id="I" width="6" height="6" x="0" y="0" fill="white">
      <use xlink:href="#h"/>
    </mask>
    <circle id="i" cx="129.5" cy="44" r="3"/>
    <mask id="J" width="6" height="6" x="0" y="0" fill="white">
      <use xlink:href="#i"/>
    </mask>
    <rect id="j" width="64" height="28" x="487" y="359"/>
    <mask id="K" width="64" height="28" x="0" y="0" fill="white">
      <use xlink:href="#j"/>
    </mask>
    <rect id="k" width="64" height="28" x="487" y="218"/>
    <mask id="L" width="64" height="28" x="0" y="0" fill="white">
      <use xlink:href="#k"/>
    </mask>
  </defs>
  <g fill="none" fill-rule="evenodd">
    <rect width="800" height="600" fill="url(#l)"/>
    <g transform="translate(29 213)">
      <rect width="150" height="174" x="10" y="10" fill="#2850EB"/>
      <use fill="#FFFFFF" stroke="#2850EB" stroke-width="4" mask="url(#m)" xlink:href="#a"/>
      <use fill="black" filter="url(#n)" xlink:href="#o"/>
      <use fill="url(#p)" xlink:href="#o"/>
      <use fill="black" filter="url(#q)" xlink:href="#r"/>
      <use fill="url(#p)" xlink:href="#r"/>
      <g>
        <use fill="black" filter="url(#s)" xlink:href="#t"/>
        <use fill="url(#p)" xlink:href="#t"/>
      </g>
      <g>
        <use fill="black" filter="url(#u)" xlink:href="#v"/>
        <use fill="url(#p)" xlink:href="#v"/>
      </g>
    </g>
    <g transform="translate(592 387)">
      <polygon fill="#2850EB" points="10 26 61.652 2 96 27 96 110 10 110"/>
      <use fill="#FFFFFF" stroke="#2850EB" stroke-width="4" mask="url(#w)" xlink:href="#b"/>
      <use fill="black" filter="url(#x)" xlink:href="#y"/>
      <use fill="url(#p)" xlink:href="#y"/>
      <use fill="black" filter="url(#z)" xlink:href="#A"/>
      <use fill="url(#p)" xlink:href="#A"/>
      <g>
        <use fill="black" filter="url(#B)" xlink:href="#C"/>
        <use fill="url(#p)" xlink:href="#C"/>
      </g>
    </g>
    <path fill="#2850EB" d="M415.7573,291.5286 C416.9081,293.8323 417.83,296.0226 418.4075,298.0953 L430.619,299.9391 C431.7719,300.2856 432.5783,301.4364 432.5783,302.4738 L432.5783,317.682 C432.5783,318.6039 431.7719,319.8723 430.619,319.9857 L418.292,321.8295 C417.4856,324.1353 416.6792,325.977 415.6418,327.8208 C417.9455,331.1619 420.3647,334.1586 422.786,337.4997 C423.5924,338.6505 423.7058,339.5724 423.0149,340.4943 C421.2866,342.6846 412.1852,352.8234 409.997,352.8234 C409.4195,352.8234 408.7286,352.7079 408.1532,352.2459 L398.8208,344.9883 C396.8615,345.9102 394.7867,346.8321 392.714,347.523 C392.252,351.4395 391.7921,355.9335 390.7547,359.85 C390.4103,361.0029 389.7173,361.8093 388.3355,361.8093 L373.3583,361.8093 C371.9744,361.8093 370.9391,360.7719 370.8236,359.7366 L368.9798,347.4075 C367.0205,346.7166 364.9478,345.9102 362.9885,344.9883 L353.3096,352.1325 C352.2722,352.8234 351.1214,352.8234 350.084,351.9015 C346.283,348.5604 341.789,344.4129 338.9078,340.3788 C338.3324,339.4569 338.2169,338.4216 338.9078,337.3842 C341.2136,334.0431 343.6328,331.1619 345.821,328.0518 C344.7836,325.8615 343.7483,323.6733 343.1708,321.6006 L330.9593,319.6413 C329.8064,319.4103 329,318.3729 329,317.2221 L329,302.3583 C329,301.2075 329.8064,299.9391 330.8438,299.7081 L343.5173,297.8643 C344.2082,295.5606 345.0146,293.8323 346.052,291.6441 C343.7483,288.5319 341.327,285.5373 338.9078,282.3117 C337.9859,281.0433 337.8704,280.3524 338.7923,279.1995 C340.5206,277.0113 349.5086,266.988 351.8123,266.988 C352.2722,266.988 353.0807,267.3324 353.6561,267.7944 L362.9885,274.9365 C364.8323,273.7857 366.905,272.9793 368.9798,272.2884 C369.4397,268.3698 369.9017,263.8758 370.8236,259.9593 C371.0525,258.8064 371.9744,258 373.3583,258 L388.3355,258 C389.7173,258 390.6392,258.8064 390.7547,260.0748 L392.5985,272.2884 C394.5578,273.0948 396.746,273.9012 398.5898,274.8231 L408.2687,267.6789 C409.304,266.8725 410.5724,266.8725 411.4943,267.7944 C415.2953,271.02 419.9048,275.1675 422.6705,279.1995 C423.3614,280.2369 423.3614,281.2743 422.6705,282.1962 C420.4802,285.5373 417.9455,288.5319 415.7573,291.5286 Z M363,310.3964 C363,319.8443 370.7196,327.5639 380.1675,327.5639 C389.7309,327.5639 397.4505,319.8443 397.4505,310.3964 C397.4505,300.7196 389.7309,293 380.1675,293 C370.7196,293 363,300.7196 363,310.3964 Z"/>
    <use fill="#FFFFFF" stroke="#2850EB" stroke-width="4" mask="url(#D)" xlink:href="#c"/>
    <g transform="translate(537 62)">
      <g transform="translate(67 88)">
        <polygon fill="#2850EB" points="6.817 48.299 37.588 23.714 63.594 44.497 32.635 67.612"/>
        <use fill="#FFFFFF" fill-rule="nonzero" stroke="#2850EB" stroke-width="4" mask="url(#E)" xlink:href="#d"/>
        <path stroke="#2850EB" stroke-width="2" d="M26 61L26 37M1.32666016 19.3261719L26.0507812 37.2021484M50.3754883 18.9086914L25.8461914 37.0600586"/>
      </g>
      <polygon fill="#2850EB" points="6.817 48.299 37.588 23.714 63.594 44.497 32.635 67.612"/>
      <use fill="#FFFFFF" fill-rule="nonzero" stroke="#2850EB" stroke-width="4" mask="url(#F)" xlink:href="#e"/>
      <path stroke="#2850EB" stroke-width="2" d="M26 61L26 37M1.32666016 19.3261719L26.0507812 37.2021484M50.3754883 18.9086914L25.8461914 37.0600586"/>
      <g transform="translate(131)">
        <polygon fill="#2850EB" points="6.817 48.299 37.588 23.714 63.594 44.497 32.635 67.612"/>
        <use fill="#FFFFFF" fill-rule="nonzero" stroke="#2850EB" stroke-width="4" mask="url(#G)" xlink:href="#f"/>
        <path stroke="#2850EB" stroke-width="2" d="M26 61L26 37M1.32666016 19.3261719L26.0507812 37.2021484M50.3754883 18.9086914L25.8461914 37.0600586"/>
      </g>
      <path stroke="#2850EB" stroke-width="2" d="M64.878418 49.1757812L88.878418 83.1757812M67 44.1580502L124.46582 44M126.327148 47.3457031L96.4472656 83.9921875" stroke-linecap="round"/>
      <use fill="#2850EB" stroke="#F5F6F9" stroke-width="2" mask="url(#H)" xlink:href="#g"/>
      <use fill="#2850EB" stroke="#F5F6F9" stroke-width="2" mask="url(#I)" xlink:href="#h"/>
      <use fill="#2850EB" stroke="#F5F6F9" stroke-width="2" mask="url(#J)" xlink:href="#i"/>
    </g>
    <path stroke="#2850EB" stroke-width="5" d="M205 307.06604L303.782997 307M633.358479 268.641521L633.424519 367.424519" stroke-linecap="round"/>
    <path fill="#2850EB" d="M634.355705 379.826617C634.1707 380.125163 633.869879 380.123759 633.685745 379.826617L626.072268 367.540565C625.887264 367.242019 626.068218 367 626.492182 367L641.549268 367C641.966184 367 642.153316 367.243423 641.969181 367.540565L634.355705 379.826617zM103.355705 202.826617C103.1707 203.125163 102.869879 203.123759 102.685745 202.826617L95.0722684 190.540565C94.8872641 190.242019 95.0682181 190 95.4921819 190L110.549268 190C110.966184 190 111.153316 190.243423 110.969181 190.540565L103.355705 202.826617z"/>
    <path fill="#2850EB" d="M103.355705,455.826617 C103.1707,456.125163 102.869879,456.123759 102.685745,455.826617 L95.0722684,443.540565 C94.8872641,443.242019 95.0682181,443 95.4921819,443 L110.549268,443 C110.966184,443 111.153316,443.243423 110.969181,443.540565 L103.355705,455.826617 Z" transform="rotate(-180 103.02 449.525)"/>
    <path fill="#2850EB" d="M307.189296,300.718384 C307.3743,300.419838 307.675121,300.421242 307.859256,300.718384 L315.472732,313.004435 C315.657736,313.302981 315.476782,313.545001 315.052819,313.545001 L299.995733,313.545001 C299.578817,313.545001 299.391685,313.301577 299.575819,313.004435 L307.189296,300.718384 Z" transform="rotate(90 307.525 307.02)"/>
    <path fill="#2850EB" d="M570.189296,435.718384 C570.3743,435.419838 570.675121,435.421242 570.859256,435.718384 L578.472732,448.004435 C578.657736,448.302981 578.476782,448.545001 578.052819,448.545001 L562.995733,448.545001 C562.578817,448.545001 562.391685,448.301577 562.575819,448.004435 L570.189296,435.718384 Z" transform="rotate(90 570.525 442.02)"/>
    <path fill="#2850EB" d="M570.189296,156.718384 C570.3743,156.419838 570.675121,156.421242 570.859256,156.718384 L578.472732,169.004435 C578.657736,169.302981 578.476782,169.545001 578.052819,169.545001 L562.995733,169.545001 C562.578817,169.545001 562.391685,169.301577 562.575819,169.004435 L570.189296,156.718384 Z" transform="rotate(90 570.525 163.02)"/>
    <polyline stroke="#2850EB" stroke-width="5" points="103 453 103 479.597 564.197 479.531" stroke-linecap="round"/>
    <polyline stroke="#2850EB" stroke-width="5" points="103 190 103 106.597 519.197 106.531" stroke-linecap="round"/>
    <polyline stroke="#2850EB" stroke-width="5" points="451 307.465 519.426 307.467 519.426 163 563.986 163" stroke-linecap="round" stroke-linejoin="round"/>
    <polyline stroke="#2850EB" stroke-width="5" points="519.4 442.467 519.4 308 563.96 308" stroke-linecap="round" stroke-linejoin="round" transform="matrix(1 0 0 -1 0 750.467)"/>
    <path fill="#2850EB" d="M81.575 433L82.955 433 84.725 429.01C85.025 428.32 85.31 427.585 85.61 426.865L85.67 426.865C85.685 427.585 85.7 428.32 85.715 429.01L85.925 433 87.35 433 90.665 425.71 89.585 425.71 87.68 430C87.365 430.69 87.125 431.365 86.84 432.04L86.78 432.04C86.75 431.365 86.735 430.69 86.705 430L86.45 425.71 85.325 425.71 83.405 430C83.09 430.69 82.835 431.365 82.535 432.04L82.475 432.04C82.46 431.365 82.445 430.69 82.43 430L82.19 425.71 81.05 425.71 81.575 433zM91.1 430.135C91.1 427.39 93.095 425.53 95 425.53 96.635 425.53 97.25 426.67 97.25 428.17 97.25 428.755 97.085 429.325 96.995 429.595L92.255 429.595C91.985 431.47 92.96 432.265 94.235 432.265 94.805 432.265 95.405 431.98 95.87 431.635L96.32 432.4C95.735 432.82 94.91 433.18 93.965 433.18 92.24 433.18 91.1 432.085 91.1 430.135zM92.375 428.815L96.2 428.815C96.245 428.575 96.275 428.35 96.275 428.065 96.275 427.24 95.915 426.445 94.865 426.445 93.8 426.445 92.75 427.375 92.375 428.815zM99.17 433L98.225 433 100.355 422.32 101.51 422.32 100.925 425.17 100.595 426.61 100.625 426.61C101.345 426.025 102.2 425.53 103.1 425.53 104.375 425.53 105.2 426.46 105.2 428.17 105.2 430.975 103.28 433.18 101.27 433.18 100.49 433.18 99.86 432.745 99.515 432.085L99.47 432.085 99.17 433zM102.68 426.49C102.005 426.49 101.12 426.94 100.43 427.675L99.74 431.14C100.145 431.905 100.655 432.22 101.225 432.22 102.68 432.22 104.015 430.36 104.015 428.335 104.015 427.105 103.505 426.49 102.68 426.49zM105.74 431.8C106.235 432.565 107.27 433.18 108.245 433.18 109.82 433.18 110.975 432.295 110.975 430.93 110.975 430.135 110.57 429.58 109.265 428.86 108.605 428.5 107.975 428.185 107.975 427.57 107.975 426.955 108.575 426.43 109.355 426.43 110.015 426.43 110.48 426.745 110.87 427.15L111.53 426.505C110.99 425.935 110.27 425.53 109.385 425.53 108.02 425.53 106.88 426.415 106.88 427.705 106.88 428.53 107.42 429.085 108.545 429.7 109.565 430.255 109.88 430.555 109.88 431.08 109.88 431.74 109.175 432.295 108.335 432.295 107.57 432.295 106.91 431.86 106.46 431.23L105.74 431.8zM112.295 433L113.435 433 114.905 425.71 113.75 425.71 112.295 433zM114.725 424.195C115.19 424.195 115.595 423.835 115.595 423.34 115.595 422.905 115.25 422.65 114.86 422.65 114.395 422.65 113.99 423.025 113.99 423.52 113.99 423.955 114.335 424.195 114.725 424.195zM116.495 430.75C116.465 431.02 116.42 431.26 116.42 431.56 116.42 432.46 116.885 433.18 118.16 433.18 118.73 433.18 119.21 433 119.54 432.85L119.285 432.025C119.06 432.13 118.805 432.25 118.52 432.25 117.83 432.25 117.59 431.95 117.59 431.35 117.59 431.155 117.605 430.99 117.635 430.81L118.49 426.64 120.365 426.64 120.545 425.71 118.7 425.71 119.105 423.7 118.13 423.7 117.59 425.71 116.45 425.785 116.285 426.64 117.35 426.64 116.495 430.75zM120.65 430.135C120.65 427.39 122.645 425.53 124.55 425.53 126.185 425.53 126.8 426.67 126.8 428.17 126.8 428.755 126.635 429.325 126.545 429.595L121.805 429.595C121.535 431.47 122.51 432.265 123.785 432.265 124.355 432.265 124.955 431.98 125.42 431.635L125.87 432.4C125.285 432.82 124.46 433.18 123.515 433.18 121.79 433.18 120.65 432.085 120.65 430.135zM121.925 428.815L125.75 428.815C125.795 428.575 125.825 428.35 125.825 428.065 125.825 427.24 125.465 426.445 124.415 426.445 123.35 426.445 122.3 427.375 121.925 428.815zM326.94 400.8C327.435 401.565 328.47 402.18 329.445 402.18 331.02 402.18 332.175 401.295 332.175 399.93 332.175 399.135 331.77 398.58 330.465 397.86 329.805 397.5 329.175 397.185 329.175 396.57 329.175 395.955 329.775 395.43 330.555 395.43 331.215 395.43 331.68 395.745 332.07 396.15L332.73 395.505C332.19 394.935 331.47 394.53 330.585 394.53 329.22 394.53 328.08 395.415 328.08 396.705 328.08 397.53 328.62 398.085 329.745 398.7 330.765 399.255 331.08 399.555 331.08 400.08 331.08 400.74 330.375 401.295 329.535 401.295 328.77 401.295 328.11 400.86 327.66 400.23L326.94 400.8zM333.585 399.135C333.585 396.39 335.58 394.53 337.485 394.53 339.12 394.53 339.735 395.67 339.735 397.17 339.735 397.755 339.57 398.325 339.48 398.595L334.74 398.595C334.47 400.47 335.445 401.265 336.72 401.265 337.29 401.265 337.89 400.98 338.355 400.635L338.805 401.4C338.22 401.82 337.395 402.18 336.45 402.18 334.725 402.18 333.585 401.085 333.585 399.135zM334.86 397.815L338.685 397.815C338.73 397.575 338.76 397.35 338.76 397.065 338.76 396.24 338.4 395.445 337.35 395.445 336.285 395.445 335.235 396.375 334.86 397.815zM340.71 402L341.85 402 342.765 397.395C343.38 396.21 344.19 395.565 344.91 395.565 345.18 395.565 345.39 395.61 345.54 395.685L345.945 394.665C345.735 394.575 345.525 394.53 345.255 394.53 344.355 394.53 343.575 395.22 342.99 396.105L342.93 396.105 343.095 394.71 342.15 394.71 340.71 402zM347.415 402L346.35 394.71 347.49 394.71 348.03 398.925C348.105 399.63 348.165 400.395 348.24 401.1L348.3 401.1C348.645 400.38 349.005 399.645 349.38 398.925L351.525 394.71 352.68 394.71 348.795 402 347.415 402zM352.65 402L354.105 394.71 355.26 394.71 353.79 402 352.65 402zM355.08 393.195C355.545 393.195 355.95 392.835 355.95 392.34 355.95 391.905 355.605 391.65 355.215 391.65 354.75 391.65 354.345 392.025 354.345 392.52 354.345 392.955 354.69 393.195 355.08 393.195zM356.295 399.255C356.295 401.115 357.39 402.18 358.98 402.18 360.045 402.18 360.795 401.73 361.32 401.325L360.81 400.575C360.36 400.92 359.835 401.22 359.19 401.22 358.035 401.22 357.465 400.5 357.465 399.18 357.465 397.185 358.83 395.475 360.285 395.475 360.855 395.475 361.2 395.685 361.575 396.135L362.25 395.415C361.815 394.92 361.23 394.53 360.36 394.53 358.245 394.53 356.295 396.54 356.295 399.255zM362.595 399.135C362.595 396.39 364.59 394.53 366.495 394.53 368.13 394.53 368.745 395.67 368.745 397.17 368.745 397.755 368.58 398.325 368.49 398.595L363.75 398.595C363.48 400.47 364.455 401.265 365.73 401.265 366.3 401.265 366.9 400.98 367.365 400.635L367.815 401.4C367.23 401.82 366.405 402.18 365.46 402.18 363.735 402.18 362.595 401.085 362.595 399.135zM363.87 397.815L367.695 397.815C367.74 397.575 367.77 397.35 367.77 397.065 367.77 396.24 367.41 395.445 366.36 395.445 365.295 395.445 364.245 396.375 363.87 397.815zM373.71 402L375.09 402 376.86 398.01C377.16 397.32 377.445 396.585 377.745 395.865L377.805 395.865C377.82 396.585 377.835 397.32 377.85 398.01L378.06 402 379.485 402 382.8 394.71 381.72 394.71 379.815 399C379.5 399.69 379.26 400.365 378.975 401.04L378.915 401.04C378.885 400.365 378.87 399.69 378.84 399L378.585 394.71 377.46 394.71 375.54 399C375.225 399.69 374.97 400.365 374.67 401.04L374.61 401.04C374.595 400.365 374.58 399.69 374.565 399L374.325 394.71 373.185 394.71 373.71 402zM385.86 402.18C384.285 402.18 383.265 401.07 383.265 399.255 383.265 396.495 385.2 394.53 387.195 394.53 388.77 394.53 389.805 395.64 389.805 397.455 389.805 400.215 387.855 402.18 385.86 402.18zM387.075 395.475C385.74 395.475 384.42 397.14 384.42 399.18 384.42 400.5 384.975 401.22 385.98 401.22 387.33 401.22 388.635 399.57 388.635 397.53 388.635 396.21 388.08 395.475 387.075 395.475zM390.87 402L392.31 394.71 393.255 394.71 393.09 396.105 393.15 396.105C393.735 395.22 394.515 394.53 395.415 394.53 395.685 394.53 395.895 394.575 396.105 394.665L395.7 395.685C395.55 395.61 395.34 395.565 395.07 395.565 394.35 395.565 393.54 396.21 392.925 397.395L392.01 402 390.87 402zM396 402L398.13 391.32 399.285 391.32 397.845 398.565 397.875 398.565 401.61 394.71 402.93 394.71 400.02 397.755 401.775 402 400.605 402 399.21 398.445 397.53 400.155 397.14 402 396 402zM402.975 399.135C402.975 396.39 404.97 394.53 406.875 394.53 408.51 394.53 409.125 395.67 409.125 397.17 409.125 397.755 408.96 398.325 408.87 398.595L404.13 398.595C403.86 400.47 404.835 401.265 406.11 401.265 406.68 401.265 407.28 400.98 407.745 400.635L408.195 401.4C407.61 401.82 406.785 402.18 405.84 402.18 404.115 402.18 402.975 401.085 402.975 399.135zM404.25 397.815L408.075 397.815C408.12 397.575 408.15 397.35 408.15 397.065 408.15 396.24 407.79 395.445 406.74 395.445 405.675 395.445 404.625 396.375 404.25 397.815zM410.1 402L411.24 402 412.155 397.395C412.77 396.21 413.58 395.565 414.3 395.565 414.57 395.565 414.78 395.61 414.93 395.685L415.335 394.665C415.125 394.575 414.915 394.53 414.645 394.53 413.745 394.53 412.965 395.22 412.38 396.105L412.32 396.105 412.485 394.71 411.54 394.71 410.1 402zM617.555 532.255C617.555 534.115 618.65 535.18 620.24 535.18 621.305 535.18 622.055 534.73 622.58 534.325L622.07 533.575C621.62 533.92 621.095 534.22 620.45 534.22 619.295 534.22 618.725 533.5 618.725 532.18 618.725 530.185 620.09 528.475 621.545 528.475 622.115 528.475 622.46 528.685 622.835 529.135L623.51 528.415C623.075 527.92 622.49 527.53 621.62 527.53 619.505 527.53 617.555 529.54 617.555 532.255zM623.885 532.54C623.885 529.735 625.805 527.53 627.83 527.53 628.61 527.53 629.24 527.965 629.585 528.625L629.645 528.625 629.93 527.71 630.86 527.71 629.405 535 628.46 535 628.58 533.92 628.52 533.92C627.815 534.67 626.9 535.18 625.985 535.18 624.71 535.18 623.885 534.25 623.885 532.54zM626.405 534.22C627.17 534.22 627.98 533.77 628.7 532.825L629.36 529.57C628.94 528.805 628.43 528.49 627.875 528.49 626.42 528.49 625.07 530.35 625.07 532.36 625.07 533.62 625.595 534.22 626.405 534.22zM631.91 532.255C631.91 534.115 633.005 535.18 634.595 535.18 635.66 535.18 636.41 534.73 636.935 534.325L636.425 533.575C635.975 533.92 635.45 534.22 634.805 534.22 633.65 534.22 633.08 533.5 633.08 532.18 633.08 530.185 634.445 528.475 635.9 528.475 636.47 528.475 636.815 528.685 637.19 529.135L637.865 528.415C637.43 527.92 636.845 527.53 635.975 527.53 633.86 527.53 631.91 529.54 631.91 532.255zM638.345 535L639.485 535 640.52 529.84C641.435 528.925 642.14 528.52 642.71 528.52 643.46 528.52 643.79 528.91 643.79 529.645 643.79 529.9 643.745 530.11 643.67 530.5L642.77 535 643.91 535 644.84 530.35C644.93 529.945 644.96 529.69 644.96 529.345 644.96 528.22 644.465 527.53 643.235 527.53 642.35 527.53 641.555 528.055 640.73 528.76L640.67 528.76 640.91 527.845 641.63 524.32 640.475 524.32 638.345 535zM646.22 532.135C646.22 529.39 648.215 527.53 650.12 527.53 651.755 527.53 652.37 528.67 652.37 530.17 652.37 530.755 652.205 531.325 652.115 531.595L647.375 531.595C647.105 533.47 648.08 534.265 649.355 534.265 649.925 534.265 650.525 533.98 650.99 533.635L651.44 534.4C650.855 534.82 650.03 535.18 649.085 535.18 647.36 535.18 646.22 534.085 646.22 532.135zM647.495 530.815L651.32 530.815C651.365 530.575 651.395 530.35 651.395 530.065 651.395 529.24 651.035 528.445 649.985 528.445 648.92 528.445 647.87 529.375 647.495 530.815zM609.465 252L610.605 252 611.64 246.84C612.555 245.925 613.26 245.52 613.83 245.52 614.58 245.52 614.91 245.91 614.91 246.645 614.91 246.9 614.865 247.11 614.79 247.5L613.89 252 615.03 252 615.96 247.35C616.05 246.945 616.08 246.69 616.08 246.345 616.08 245.22 615.585 244.53 614.355 244.53 613.44 244.53 612.63 245.085 611.805 245.805L611.745 245.805 611.85 244.71 610.905 244.71 609.465 252zM617.43 249.135C617.43 246.39 619.425 244.53 621.33 244.53 622.965 244.53 623.58 245.67 623.58 247.17 623.58 247.755 623.415 248.325 623.325 248.595L618.585 248.595C618.315 250.47 619.29 251.265 620.565 251.265 621.135 251.265 621.735 250.98 622.2 250.635L622.65 251.4C622.065 251.82 621.24 252.18 620.295 252.18 618.57 252.18 617.43 251.085 617.43 249.135zM618.705 247.815L622.53 247.815C622.575 247.575 622.605 247.35 622.605 247.065 622.605 246.24 622.245 245.445 621.195 245.445 620.13 245.445 619.08 246.375 618.705 247.815zM624.945 249.75C624.915 250.02 624.87 250.26 624.87 250.56 624.87 251.46 625.335 252.18 626.61 252.18 627.18 252.18 627.66 252 627.99 251.85L627.735 251.025C627.51 251.13 627.255 251.25 626.97 251.25 626.28 251.25 626.04 250.95 626.04 250.35 626.04 250.155 626.055 249.99 626.085 249.81L626.94 245.64 628.815 245.64 628.995 244.71 627.15 244.71 627.555 242.7 626.58 242.7 626.04 244.71 624.9 244.785 624.735 245.64 625.8 245.64 624.945 249.75zM630.285 252L631.665 252 633.435 248.01C633.735 247.32 634.02 246.585 634.32 245.865L634.38 245.865C634.395 246.585 634.41 247.32 634.425 248.01L634.635 252 636.06 252 639.375 244.71 638.295 244.71 636.39 249C636.075 249.69 635.835 250.365 635.55 251.04L635.49 251.04C635.46 250.365 635.445 249.69 635.415 249L635.16 244.71 634.035 244.71 632.115 249C631.8 249.69 631.545 250.365 631.245 251.04L631.185 251.04C631.17 250.365 631.155 249.69 631.14 249L630.9 244.71 629.76 244.71 630.285 252zM642.435 252.18C640.86 252.18 639.84 251.07 639.84 249.255 639.84 246.495 641.775 244.53 643.77 244.53 645.345 244.53 646.38 245.64 646.38 247.455 646.38 250.215 644.43 252.18 642.435 252.18zM643.65 245.475C642.315 245.475 640.995 247.14 640.995 249.18 640.995 250.5 641.55 251.22 642.555 251.22 643.905 251.22 645.21 249.57 645.21 247.53 645.21 246.21 644.655 245.475 643.65 245.475zM647.445 252L648.885 244.71 649.83 244.71 649.665 246.105 649.725 246.105C650.31 245.22 651.09 244.53 651.99 244.53 652.26 244.53 652.47 244.575 652.68 244.665L652.275 245.685C652.125 245.61 651.915 245.565 651.645 245.565 650.925 245.565 650.115 246.21 649.5 247.395L648.585 252 647.445 252zM652.575 252L654.705 241.32 655.86 241.32 654.42 248.565 654.45 248.565 658.185 244.71 659.505 244.71 656.595 247.755 658.35 252 657.18 252 655.785 248.445 654.105 250.155 653.715 252 652.575 252z"/>
    <use fill="#FFFFFF" stroke="#2850EB" stroke-width="4" mask="url(#K)" xlink:href="#j"/>
    <use fill="#FFFFFF" stroke="#2850EB" stroke-width="4" mask="url(#L)" xlink:href="#k"/>
    <path fill="#2850EB" d="M503.18 378.18C501.605 378.18 500.585 377.07 500.585 375.255 500.585 372.495 502.52 370.53 504.515 370.53 506.09 370.53 507.125 371.64 507.125 373.455 507.125 376.215 505.175 378.18 503.18 378.18zM504.395 371.475C503.06 371.475 501.74 373.14 501.74 375.18 501.74 376.5 502.295 377.22 503.3 377.22 504.65 377.22 505.955 375.57 505.955 373.53 505.955 372.21 505.4 371.475 504.395 371.475zM513.89 370.71L514.13 369.495C514.43 368.025 515.225 367.14 516.44 367.14 516.965 367.14 517.355 367.29 517.745 367.485L517.325 368.325C517.13 368.19 516.86 368.07 516.53 368.07 515.87 368.07 515.45 368.61 515.285 369.465L515.03 370.71 516.515 370.71 516.32 371.64 514.85 371.64 513.575 378 512.42 378 513.695 371.64 510.8 371.64 509.51 378 508.37 378 509.645 371.64 508.7 371.64 508.865 370.785 509.84 370.71 510.05 369.645C510.365 368.175 511.19 367.29 512.45 367.29 513.035 367.29 513.44 367.44 513.845 367.635L513.44 368.475C513.2 368.34 512.93 368.22 512.54 368.22 511.835 368.22 511.37 368.76 511.205 369.615L510.98 370.71 513.89 370.71zM516.755 376.605L518.6 367.32 519.755 367.32 517.88 376.665C517.85 376.815 517.85 376.89 517.85 376.95 517.85 377.13 517.955 377.22 518.105 377.22 518.165 377.22 518.21 377.22 518.345 377.175L518.36 378.06C518.165 378.135 517.955 378.18 517.64 378.18 516.995 378.18 516.665 377.835 516.665 377.235 516.665 377.07 516.695 376.86 516.755 376.605zM520.19 378L521.33 378 522.8 370.71 521.645 370.71 520.19 378zM522.62 369.195C523.085 369.195 523.49 368.835 523.49 368.34 523.49 367.905 523.145 367.65 522.755 367.65 522.29 367.65 521.885 368.025 521.885 368.52 521.885 368.955 522.23 369.195 522.62 369.195zM523.745 378L524.885 378 525.92 372.84C526.835 371.925 527.54 371.52 528.11 371.52 528.86 371.52 529.19 371.91 529.19 372.645 529.19 372.9 529.145 373.11 529.07 373.5L528.17 378 529.31 378 530.24 373.35C530.33 372.945 530.36 372.69 530.36 372.345 530.36 371.22 529.865 370.53 528.635 370.53 527.72 370.53 526.91 371.085 526.085 371.805L526.025 371.805 526.13 370.71 525.185 370.71 523.745 378zM531.71 375.135C531.71 372.39 533.705 370.53 535.61 370.53 537.245 370.53 537.86 371.67 537.86 373.17 537.86 373.755 537.695 374.325 537.605 374.595L532.865 374.595C532.595 376.47 533.57 377.265 534.845 377.265 535.415 377.265 536.015 376.98 536.48 376.635L536.93 377.4C536.345 377.82 535.52 378.18 534.575 378.18 532.85 378.18 531.71 377.085 531.71 375.135zM532.985 373.815L536.81 373.815C536.855 373.575 536.885 373.35 536.885 373.065 536.885 372.24 536.525 371.445 535.475 371.445 534.41 371.445 533.36 372.375 532.985 373.815zM503.18 237.18C501.605 237.18 500.585 236.07 500.585 234.255 500.585 231.495 502.52 229.53 504.515 229.53 506.09 229.53 507.125 230.64 507.125 232.455 507.125 235.215 505.175 237.18 503.18 237.18zM504.395 230.475C503.06 230.475 501.74 232.14 501.74 234.18 501.74 235.5 502.295 236.22 503.3 236.22 504.65 236.22 505.955 234.57 505.955 232.53 505.955 231.21 505.4 230.475 504.395 230.475zM508.19 237L509.33 237 510.365 231.84C511.28 230.925 511.985 230.52 512.555 230.52 513.305 230.52 513.635 230.91 513.635 231.645 513.635 231.9 513.59 232.11 513.515 232.5L512.615 237 513.755 237 514.685 232.35C514.775 231.945 514.805 231.69 514.805 231.345 514.805 230.22 514.31 229.53 513.08 229.53 512.165 229.53 511.355 230.085 510.53 230.805L510.47 230.805 510.575 229.71 509.63 229.71 508.19 237zM516.35 235.605C516.29 235.86 516.26 236.07 516.26 236.235 516.26 236.835 516.59 237.18 517.235 237.18 517.55 237.18 517.76 237.135 517.955 237.06L517.94 236.175C517.805 236.22 517.76 236.22 517.7 236.22 517.55 236.22 517.445 236.13 517.445 235.95 517.445 235.89 517.445 235.815 517.475 235.665L519.35 226.32 518.195 226.32 516.35 235.605zM519.785 237L520.925 237 522.395 229.71 521.24 229.71 519.785 237zM522.215 228.195C522.68 228.195 523.085 227.835 523.085 227.34 523.085 226.905 522.74 226.65 522.35 226.65 521.885 226.65 521.48 227.025 521.48 227.52 521.48 227.955 521.825 228.195 522.215 228.195zM523.34 237L524.48 237 525.515 231.84C526.43 230.925 527.135 230.52 527.705 230.52 528.455 230.52 528.785 230.91 528.785 231.645 528.785 231.9 528.74 232.11 528.665 232.5L527.765 237 528.905 237 529.835 232.35C529.925 231.945 529.955 231.69 529.955 231.345 529.955 230.22 529.46 229.53 528.23 229.53 527.315 229.53 526.505 230.085 525.68 230.805L525.62 230.805 525.725 229.71 524.78 229.71 523.34 237zM531.305 234.135C531.305 231.39 533.3 229.53 535.205 229.53 536.84 229.53 537.455 230.67 537.455 232.17 537.455 232.755 537.29 233.325 537.2 233.595L532.46 233.595C532.19 235.47 533.165 236.265 534.44 236.265 535.01 236.265 535.61 235.98 536.075 235.635L536.525 236.4C535.94 236.82 535.115 237.18 534.17 237.18 532.445 237.18 531.305 236.085 531.305 234.135zM532.58 232.815L536.405 232.815C536.45 232.575 536.48 232.35 536.48 232.065 536.48 231.24 536.12 230.445 535.07 230.445 534.005 230.445 532.955 231.375 532.58 232.815z"/>
  </g>
</svg>
